<mxfile host="app.diagrams.net" modified="2024-01-07T12:44:03.229Z" agent="Mozilla/5.0 (Windows NT 10.0; Win64; x64) AppleWebKit/537.36 (KHTML, like Gecko) Chrome/120.0.0.0 Safari/537.36" version="22.1.17" etag="ddZBY_OO4oFzxLCDwTOe" type="github">
  <diagram name="Seite-1" id="ylGhHJp1OfE4YzfVI_b7">
    <mxGraphModel>
      <root>
        <mxCell id="0" />
        <mxCell id="1" parent="0" />
      </root>
    </mxGraphModel>
  </diagram>
</mxfile>
